# xmcd
#
# Track frame offsets:
#	150
#	12181
#	23992
#	36489
#	46608
#	62508
#	74421
#	89694
#	101030
#	113342
#	125035
#	135753
#
# Disc length: 2015 seconds
#
# Revision: 0
# Processed by: cddbd v1.5.1PL0 Copyright (c) Steve Scherf et al.
# Submitted via: EasyCDDAExtractor 4.6.9.1
#
DISCID=9a07dd0c
DTITLE=Rock County - Rock Solid
DYEAR=2003
DGENRE=Bluegrass
TTITLE0=Mary Jane, Won't You Be Mine
TTITLE1=Greener Pastures
TTITLE2=The Old Home Place
TTITLE3=Mountain Parkway
TTITLE4=For Years
TTITLE5=Roustabout
TTITLE6=All The Love I Had Is Gone
TTITLE7=My Best Pal
TTITLE8=Girl At The Crossroads Bar
TTITLE9=They Called It A Church
TTITLE10=Williamsburg
TTITLE11=He Died A Rounder At 21
EXTD=
EXTT0=
EXTT1=
EXTT2=
EXTT3=
EXTT4=
EXTT5=
EXTT6=
EXTT7=
EXTT8=
EXTT9=
EXTT10=
EXTT11=
PLAYORDER=
